<?xml version="1.0" encoding="UTF-8" standalone="no"?>
<!-- Generator: Adobe Illustrator 13.0.1, SVG Export Plug-In . SVG Version: 6.00 Build 14948)  -->
<svg
   xmlns:dc="http://purl.org/dc/elements/1.1/"
   xmlns:cc="http://creativecommons.org/ns#"
   xmlns:rdf="http://www.w3.org/1999/02/22-rdf-syntax-ns#"
   xmlns:svg="http://www.w3.org/2000/svg"
   xmlns="http://www.w3.org/2000/svg"
   xmlns:sodipodi="http://sodipodi.sourceforge.net/DTD/sodipodi-0.dtd"
   xmlns:inkscape="http://www.inkscape.org/namespaces/inkscape"
   version="1.1"
   id="Layer_1"
   x="0px"
   y="0px"
   width="761.618px"
   height="898.416px"
   viewBox="0 0 761.618 898.416"
   enable-background="new 0 0 761.618 898.416"
   xml:space="preserve"
   sodipodi:version="0.32"
   inkscape:version="0.46"
   sodipodi:docname="Flyvende_Banan.svg"
   inkscape:output_extension="org.inkscape.output.svg.inkscape"><metadata
   id="metadata156"><rdf:RDF><cc:Work
       rdf:about=""><dc:format>image/svg+xml</dc:format><dc:type
         rdf:resource="http://purl.org/dc/dcmitype/StillImage" /></cc:Work></rdf:RDF></metadata><defs
   id="defs154"><inkscape:perspective
     sodipodi:type="inkscape:persp3d"
     inkscape:vp_x="0 : 449.20801 : 1"
     inkscape:vp_y="0 : 1000 : 0"
     inkscape:vp_z="761.61798 : 449.20801 : 1"
     inkscape:persp3d-origin="380.80899 : 299.47201 : 1"
     id="perspective158" /></defs><sodipodi:namedview
   inkscape:window-height="480"
   inkscape:window-width="640"
   inkscape:pageshadow="2"
   inkscape:pageopacity="0.0"
   guidetolerance="10.0"
   gridtolerance="10.0"
   objecttolerance="10.0"
   borderopacity="1.0"
   bordercolor="#666666"
   pagecolor="#ffffff"
   id="base"
   showgrid="false" />
<g
   id="g3">
	<g
   id="g5">
		<path
   style="fill-rule:evenodd"
   d="M 565.992,683.71198 C 557.27063,663.34677 547.88117,655.53185 523.008,657.216 C 507.91903,641.57391 478.92546,637.16662 459.936,650.736 C 428.84892,664.53659 440.53004,608.0321 433.44,587.664 C 423.09229,562.58009 436.07444,536.38096 453.312,527.976 C 459.96012,510.28812 471.83422,497.82622 483.12,484.776 C 496.0303,495.09771 511.52079,502.83921 523.008,514.584 C 510.13695,527.20095 494.90752,537.45952 489.816,557.856 C 479.65779,578.79943 510.0394,585.27997 516.312,600.84 C 534.11944,612.88855 562.44534,614.41866 572.688,634.032 C 587.50784,639.17442 582.60396,682.9917 565.992,683.71198 z"
   id="path7" />
		<path
   style="fill:#fae629;fill-rule:evenodd"
   d="M 605.95203,740.37598 C 572.22124,713.13358 641.4903,735.76261 605.952,740.376 L 605.95203,740.37598 z"
   id="path9" />
		<path
   style="fill-rule:evenodd"
   d="M 582.47998,726.98401 C 587.21438,693.20716 575.2658,678.26499 589.176,650.736 C 607.03561,665.79391 648.49335,629.16198 639.144,657.216 C 628.80757,668.06696 628.08158,670.34576 645.552,673.92 C 654.15178,721.84599 593.3171,651.93442 605.952,709.40137 C 603.8764,717.6663 593.64599,727.52552 582.47998,726.98401 z"
   id="path11" />
		<path
   style="fill:#fae629;fill-rule:evenodd"
   d="M 675.43201,697.104 C 667.66981,690.49207 633.28433,676.05063 668.952,673.92 C 670.00935,678.86418 686.45988,692.29948 675.43201,697.104 z"
   id="path13" />
		<path
   style="fill:#fae629;fill-rule:evenodd"
   d="M 652.24799,653.83197 C 637.6616,619.62738 705.86791,655.98665 663.849,650.73599 C 647.87089,639.65683 661.47946,658.16456 652.24799,653.83197 z"
   id="path15" />
	</g>
	<g
   id="g17">
		<path
   style="fill-rule:evenodd"
   d="M 409.608,455.47198 C 410.01309,421.59908 407.82424,385.13223 412.91999,355.95 C 416.66817,324.32816 419.73327,292.02327 429.408,266.328 C 432.52124,238.45724 443.16707,218.11907 449.496,193.464 C 458.51481,173.73081 470.37001,156.834 479.376,137.088 C 490.88184,124.32984 497.67136,106.85536 512.28,97.2 C 520.10078,83.996782 534.54355,77.415554 542.16,64.008 C 555.85234,53.66349 589.01894,51.345369 562.248,67.32 C 553.19755,80.421549 539.27069,88.646694 532.368,103.896 C 517.10393,112.91993 513.00736,133.11136 499.176,143.568 C 490.771,163.915 475.71955,177.61555 469.296,199.944 C 454.88218,215.36218 452.1882,242.5002 439.488,259.632 C 453.27626,292.43005 426.37358,309.98542 426.096,339.408 C 413.09234,368.46458 424.41613,422.9046 419.616,452.088 C 411.10662,448.04263 422.62938,464.0294 409.608,455.47198 z"
   id="path19" />
		<path
   style="fill-rule:evenodd"
   d="M 432.79199,448.776 C 438.95382,429.56981 454.96697,420.21497 462.6,402.48 C 476.66332,391.05532 483.48837,372.39237 495.864,359.28 C 506.6053,340.7293 517.24372,322.07572 525.672,301.212 C 529.20005,288.12314 549.8766,226.16682 545.544,266.328 C 544.6448,297.5168 529.65645,314.61644 522.36,339.408 C 508.19843,351.76643 503.64728,373.73528 489.168,385.776 C 481.17284,403.26884 466.41992,414.00392 459.288,432.36 C 449.51255,437.21891 450.94191,451.06252 432.79199,448.776 z"
   id="path21" />
		<path
   style="fill-rule:evenodd"
   d="M 399.52802,438.69601 C 384.26752,427.02547 380.95058,403.41144 383.328,374.103 C 380.54331,335.46531 390.64692,309.71592 393.12,276.336 C 402.50448,255.31248 406.3632,228.7632 416.30401,208.296 C 422.29094,184.97894 433.46692,166.85092 439.488,143.568 C 451.71466,131.50666 456.53274,112.03674 472.68,103.896 C 487.26975,83.255747 497.80858,101.72918 479.376,113.688 C 471.38185,136.67785 455.91096,152.19096 449.496,176.76 C 436.60373,193.25573 430.59621,216.6362 422.712,238.14 C 415.03173,266.3941 407.81339,295.11014 406.224,329.45512 C 396.80158,358.67832 409.23753,409.7599 399.528,438.696 L 399.52802,438.69601 z"
   id="path23" />
		<path
   style="fill-rule:evenodd"
   d="M 429.40799,428.97601 C 430.11138,397.59139 427.12711,362.51911 432.792,336.096 C 441.77817,319.61817 445.29314,297.66914 462.6,289.512 C 477.21355,274.91696 451.076,317.86002 452.592,332.712 C 437.5189,349.63413 446.04687,396.52355 442.8,415.656 C 444.50688,426.0819 439.69356,430.63887 429.40799,428.97601 z"
   id="path25" />
		<path
   style="fill-rule:evenodd"
   d="M 369.936,412.272 C 354.78281,400.01887 354.17568,365.44857 360.216,341.83799 C 358.75393,307.59793 367.03712,283.10312 369.936,253.224 C 378.80172,239.83369 386.32367,207.98982 402.912,213.335 C 390.82135,236.52435 390.29272,271.27572 379.944,296.207 C 380.84092,328.18112 366.6206,362.45686 376.632,392.471 C 374.08435,397.77803 382.77421,418.03672 369.936,412.272 z"
   id="path27" />
		<path
   style="fill-rule:evenodd"
   d="M 452.59201,405.86401 C 450.0733,369.50232 456.24445,341.83045 465.984,317.727 C 472.90096,298.67862 484.93358,284.74591 495.864,269.711 C 517.98517,264.72429 480.02719,300.82078 482.472,319.391 C 464.85619,336.09518 472.35765,377.91666 459.288,399.167 C 459.39414,402.11599 455.54045,405.96776 452.59201,405.86401 z"
   id="path29" />
		<path
   style="fill-rule:evenodd"
   d="M 346.82401,385.776 C 326.56902,372.0228 333.09862,329.63474 343.512,309.6 C 363.98276,282.97059 344.49291,349.83648 350.208,370.008 C 346.53049,372.71448 356.25322,388.82124 346.82401,385.776 z"
   id="path31" />
		<path
   style="fill-rule:evenodd"
   d="M 479.37601,359.28 C 482.47052,331.39053 493.82891,311.76491 505.872,292.824 C 509.64129,268.41247 530.67449,259.36619 512.28,286.416 C 509.00494,312.90094 499.55572,333.21172 489.168,352.584 C 483.34371,350.12879 484.91672,361.45257 479.37601,359.28 z"
   id="path33" />
		<path
   style="fill-rule:evenodd"
   d="M 452.59201,276.336 C 458.63626,251.34827 463.64418,225.32418 475.992,206.64 C 480.95076,182.84676 498.22627,171.37027 505.872,150.264 C 519.03504,140.17104 526.38244,124.26244 539.064,113.688 C 547.45606,100.02406 561.56665,92.078651 572.04,80.496 C 585.11333,71.417325 596.23447,60.386466 608.616,50.616 C 634.11177,29.192557 616.58045,58.719926 608.616,74.016 C 594.27492,81.826916 590.46515,100.16915 575.352,107.208 C 567.41534,122.43134 552.26195,130.43795 545.544,146.88 C 530.5368,157.3848 525.24216,177.60216 512.28,190.152 C 504.47025,213.30225 489.09108,228.88308 482.472,253.224 C 475.14169,263.62512 470.36033,275.82971 452.59201,276.336 z"
   id="path35" />
		<path
   style="fill-rule:evenodd"
   d="M 499.17599,256.53601 C 508.98354,236.48754 514.044,211.69201 529.056,196.848 C 534.66212,173.63012 550.24394,160.38794 558.864,140.184 C 570.8869,129.0229 579.96079,114.91279 592.128,103.896 C 603.70499,91.208995 618.20192,81.441918 631.728,70.704 C 643.09091,66.110007 690.94737,34.6546 675,64.008 C 656.98407,70.376067 648.02531,85.801309 631.728,93.888 C 623.09976,108.49176 608.50503,117.12903 601.92,133.776 C 586.67922,143.95122 581.85082,164.53882 568.656,176.76 C 559.91733,194.51766 547.48868,208.58535 539.064,226.657 C 526.23215,237.88364 524.42008,257.53347 499.17599,256.53601 z"
   id="path37" />
		<path
   style="fill-rule:evenodd"
   d="M 545.54401,239.832 C 550.44965,217.11332 562.47118,201.51051 575.352,186.767 C 581.9124,167.8394 596.27466,156.71366 605.232,140.183 C 617.05304,129.94804 624.51964,115.35864 638.424,107.207 C 651.73502,93.926023 668.38862,83.987624 685.008,74.015 C 695.50209,63.845487 731.16675,69.101067 704.88,80.495 C 693.07855,93.053548 677.31539,101.65039 664.992,113.687 C 651.34519,122.19219 641.08676,134.08576 628.416,143.567 C 620.7334,156.9084 606.54801,163.74701 598.536,176.759 C 584.85045,187.36145 577.64245,204.44145 565.56,216.647 C 559.83375,225.03598 559.14816,239.4162 545.54401,239.832 z"
   id="path39" />
	</g>
	<g
   id="g41">
		<path
   style="fill:#ffffff;fill-rule:evenodd"
   d="M 131.976,898.41602 C 150.49394,895.25435 135.31805,906.8128 131.976,898.416 L 131.976,898.41602 z"
   id="path43" />
		<path
   style="fill-rule:evenodd"
   d="M 130.392,894.888 C 174.11115,899.37698 161.59777,848.4637 201.528,842.112 C 289.63905,783.48334 330.38143,676.12305 421.65342,620.95951 C 485.98676,576.58728 563.93315,562.40054 636.98892,539.55998 C 674.52308,515.12046 718.30157,505.70124 758.322,514.52099 C 776.43223,468.50357 714.39484,467.3629 687.77079,450.68098 C 626.39732,391.83431 533.6578,394.82389 456.05224,411.52929 C 366.03732,426.21023 286.51826,482.58253 228.8662,552.01179 C 181.81265,613.27914 144.21337,681.95142 114.63286,753.09117 C 103.5805,795.39932 124.33179,837.14334 126.054,879.435 L 126.864,886.968 L 130.392,894.888 L 130.392,894.888 z"
   id="path45" />
		<path
   style="fill:#fae629;fill-rule:evenodd"
   d="M 122.76,798.12 C 139.04575,791.88901 165.06805,772.34514 141.38367,801.85964 C 133.47739,843.90473 182.04384,799.93908 179.96152,777.65434 C 234.86124,661.04347 318.11716,548.89539 438.696,495 C 512.49853,468.67699 594.40465,481.8057 667.296,451.944 C 652.84101,415.5525 598.43228,414.91094 563.48846,411.57678 C 484.53786,406.08575 404.40433,424.79064 338.21022,468.89144 C 265.14394,514.3009 204.92399,580.44402 170.334,659.52337 C 150.94251,702.20391 122.54318,744.39555 121.49889,792.50534 L 122.76,798.12 L 122.76,798.12 z"
   id="path47" />
		<path
   style="fill:#121512;fill-rule:evenodd"
   d="M 156.024,811.58398 C 165.15064,813.51249 153.82768,801.97319 156.024,811.58398 z"
   id="path49" />
		<path
   style="fill:#fae629;fill-rule:evenodd"
   d="M 173.16,846.43201 C 209.74883,826.55475 248.07482,802.94855 271.10137,767.11042 C 339.57387,672.16555 428.80234,581.2836 546.99877,554.72443 C 592.31923,540.64998 644.51057,539.93804 684.1364,512.21264 C 716.31415,465.75675 644.09129,465.96289 615.456,473.616 C 579.65064,482.14373 543.53998,488.48492 506.76628,487.55899 C 409.4017,497.64947 333.81612,568.73896 275.50611,641.98402 C 247.02181,680.07452 224.84458,722.75514 198.01361,762.47966 C 187.09728,783.11962 155.12732,824.08184 178.803,828.099 C 176.10759,833.82166 171.73439,839.70522 173.16,846.43201 z"
   id="path51" />
		<path
   style="fill:#372a21;fill-rule:evenodd"
   d="M 144.64799,761.40002 C 153.03577,762.29403 146.64316,754.03919 144.64799,761.40002 z"
   id="path53" />
		<path
   style="fill:#2d2c52;fill-rule:evenodd"
   d="M 162.28799,781.12799 C 171.64597,784.3229 159.32508,769.60467 162.28799,781.12799 z"
   id="path55" />
		<path
   style="fill:#203525;fill-rule:evenodd"
   d="M 191.23199,804.31201 C 199.37538,805.30749 194.70288,795.98086 191.23199,804.31201 z"
   id="path57" />
		<path
   style="fill:#36242a;fill-rule:evenodd"
   d="M 159.84,732.74402 C 168.42641,734.83499 164.05327,725.89414 159.84,732.74402 z"
   id="path59" />
		<path
   style="fill:#231b18;fill-rule:evenodd"
   d="M 178.34399,752.54401 C 187.39777,755.36286 176.42955,742.34248 178.34399,752.54401 z"
   id="path61" />
		<path
   style="fill:#161b16;fill-rule:evenodd"
   d="M 280.15201,554.112 C 291.27591,554.32996 278.60577,547.11743 280.15201,554.112 z"
   id="path63" />
		<path
   style="fill:#2b2843;fill-rule:evenodd"
   d="M 298.008,573.69598 C 307.97291,577.26017 295.63957,563.26006 298.008,573.69598 z"
   id="path65" />
		<path
   style="fill:#27281e;fill-rule:evenodd"
   d="M 300.384,538.63202 C 311.02888,538.76161 296.94485,532.52706 300.384,538.63202 z"
   id="path67" />
		<path
   style="fill:#0e1818;fill-rule:evenodd"
   d="M 307.29599,541.87201 C 318.81757,541.65903 306.43007,535.10954 307.29599,541.87201 z"
   id="path69" />
		<path
   style="fill:#36242a;fill-rule:evenodd"
   d="M 325.07999,561.45599 C 333.8417,564.67563 323.43031,551.82752 325.07999,561.45599 z"
   id="path71" />
		<path
   style="fill:#1d2432;fill-rule:evenodd"
   d="M 341.20801,509.832 C 351.10596,510.88897 343.50693,501.86744 341.20801,509.832 z"
   id="path73" />
		<path
   style="fill:#2d2c52;fill-rule:evenodd"
   d="M 359.64001,529.48798 C 371.02521,530.9341 355.15363,520.85637 359.64001,529.48798 z"
   id="path75" />
		<path
   style="fill:#1d2432;fill-rule:evenodd"
   d="M 405.35999,578.73602 C 418.7675,578.57946 410.4082,566.24981 405.35999,578.73602 z"
   id="path77" />
		<path
   style="fill:#27281e;fill-rule:evenodd"
   d="M 423.35999,598.67999 C 433.72265,601.22478 419.20084,589.12636 423.35999,598.67999 z"
   id="path79" />
		<path
   style="fill:#3e3360;fill-rule:evenodd"
   d="M 415.07999,550.29602 C 425.97594,555.0216 413.51969,542.67489 415.07999,550.29602 z"
   id="path81" />
		<path
   style="fill:#665631;fill-rule:evenodd"
   d="M 426.02399,545.328 C 432.52239,545.84723 428.30341,536.34846 426.02399,545.328 z"
   id="path83" />
		<path
   style="fill:#2b2843;fill-rule:evenodd"
   d="M 599.61603,453.672 C 609.40203,455.54461 599.68101,444.19676 599.61603,453.672 z"
   id="path85" />
		<path
   style="fill:#251f25;fill-rule:evenodd"
   d="M 635.68799,524.448 C 644.60334,526.35377 634.41026,515.30142 635.68799,524.448 z"
   id="path87" />
		<path
   style="fill:#161b16;fill-rule:evenodd"
   d="M 630.28802,498.31201 C 643.4505,500.79004 625.95002,490.32589 630.28802,498.31201 z"
   id="path89" />
		<path
   style="fill:#d4d4d4;fill-rule:evenodd"
   d="M 622.29602,442.65601 C 634.47008,431.86423 624.48969,437.62892 622.29602,442.65601 z"
   id="path91" />
	</g>
	<g
   id="g93">
		<g
   id="g95">
			<path
   style="fill:#fae629;fill-rule:evenodd"
   d="M 476.71201,697.96802 C 462.16918,674.29881 511.94888,685.08629 494.21813,697.96799 C 488.38275,697.968 482.54734,697.96799 476.71201,697.96802 z"
   id="path97" />
			<path
   style="fill:#fae629;fill-rule:evenodd"
   d="M 516.59998,649.29602 C 547.51394,648.20121 523.86292,688.63553 516.57301,655.55999 L 516.6,649.296 L 516.59998,649.29602 z"
   id="path99" />
			<path
   style="fill:#fae629;fill-rule:evenodd"
   d="M 529.27197,623.52002 C 550.57865,610.39559 549.66,663.50619 533.088,634.896 C 530.00474,633.18409 521.56776,630.88372 529.27197,623.52002 z"
   id="path101" />
		</g>
		<path
   style="fill-rule:evenodd"
   d="M 526.60797,624.888 C 513.92485,628.48885 520.59633,658.62287 503.208,651.384 C 486.24548,642.91168 461.80447,645.77476 483.408,661.392 C 496.90538,680.24654 444.60118,692.94872 456.912,658.008 C 449.77069,633.60023 436.50456,647.6103 417.024,651.384 C 412.41281,639.69134 400.56519,659.43467 397.44,638.208 C 395.18313,617.84213 370.06916,649.13411 377.568,611.712 C 348.4841,642.1109 361.59488,563.42496 337.752,588.528 C 324.33711,560.43397 344.79855,541.04124 364.248,535.248 C 383.62817,524.86817 405.79362,517.27362 423.648,505.368 C 479.66622,494.01985 442.18632,568.12599 450.216,598.32 C 460.30936,612.89636 475.14343,629.10921 491.76,611.71201 C 502.22073,606.14416 542.91273,604.71639 526.60797,624.888 z"
   id="path103" />
	</g>
	<g
   id="g105">
		<path
   style="fill-rule:evenodd"
   d="M 242.20799,557.28003 C 260.92324,538.11285 206.97322,546.21001 235.431,537.40799 C 263.09861,530.65662 294.20104,527.34004 315.288,514.008 C 336.43731,500.95636 357.08715,518.1674 325.08,524.016 C 325.81489,540.4914 363.3604,512.95212 378.072,510.912 C 385.17538,496.12623 416.31709,493.24407 407.88,472.68 C 401.39526,454.27674 388.72534,442.05866 378.072,427.824 C 365.17289,419.81878 357.8782,406.20913 345.168,398.015 C 336.15006,382.72094 321.00306,373.55594 315.288,354.959 C 302.10023,339.39477 290.3154,322.4276 285.408,298.583 C 269.81184,283.14716 275.27684,246.65016 258.696,232.199 C 251.1044,216.6066 232.04753,212.47947 222.336,199.007 C 205.93913,193.27587 199.65906,177.42794 185.832,169.127 C 178.86471,150.70229 161.6182,142.5568 155.952,122.831 C 140.49265,110.57035 136.18947,87.153526 122.76,72.863 C 118.72821,51.462269 96.080652,30.935259 106.272,6.479 C 117.16273,-6.9480056 127.63718,35.50544 139.248,42.983 C 146.12175,62.72525 161.30161,74.161392 169.128,92.951 C 181.45842,106.01258 188.49296,124.37004 202.32,135.935 C 208.63244,153.98256 225.41842,161.55658 232.128,179.207 C 247.17662,186.31038 250.71414,204.92486 265.392,212.399 C 283.23618,223.18682 277.59181,257.46319 288.504,275.183 C 295.003,298.564 305.1408,318.3062 318.384,334.943 C 326.02944,351.65756 338.577,363.47 348.264,378.143 C 361.19207,387.31927 367.09788,403.51779 381.384,411.336 C 393.42945,422.45055 398.81319,440.22681 421.056,441.144 C 435.01736,448.90666 441.5801,481.73879 421.056,487.512 C 410.65334,502.50134 389.06076,506.30076 378.072,520.704 C 360.6297,529.7577 342.9603,538.5843 325.08,547.2 C 309.97547,562.22438 262.12383,547.0618 242.20799,557.28003 z"
   id="path107" />
		<path
   style="fill-rule:evenodd"
   d="M 238.82401,527.40002 C 239.26876,497.96478 279.87276,508.68877 298.584,497.52 C 350.17587,493.20471 302.22329,517.55463 282.096,517.392 C 269.66282,522.11591 254.77104,526.01208 238.82401,527.40002 z"
   id="path109" />
		<path
   style="fill-rule:evenodd"
   d="M 358.272,507.60001 C 321.54683,493.67615 367.52136,487.71698 384.696,481.032 C 414.271,482.73505 369.70721,505.03989 358.272,507.6 L 358.272,507.60001 z"
   id="path111" />
		<path
   style="fill-rule:evenodd"
   d="M 212.328,504.216 C 169.07189,491.35484 238.11513,486.80709 255.6,484.128 C 268.09158,481.97755 319.65253,469.60441 301.896,487.512 C 275.93384,494.76021 251.29865,503.33541 218.96887,504.216 L 212.328,504.216 L 212.328,504.216 z"
   id="path113" />
		<path
   style="fill-rule:evenodd"
   d="M 331.776,484.12799 C 333.26105,471.31155 370.42209,465.50222 394.776,464.328 C 391.79352,486.3506 353.72741,480.14488 331.776,484.12799 z"
   id="path115" />
		<path
   style="fill-rule:evenodd"
   d="M 215.64,477.72 C 193.40293,473.45751 186.9923,467.44859 212.328,461.016 C 238.9992,466.88016 292.43338,447.45885 291.888,467.64 C 273.29092,477.18296 243.16887,476.74108 215.64,477.72 z"
   id="path117" />
		<path
   style="fill-rule:evenodd"
   d="M 315.28799,467.64001 C 296.24303,450.13586 348.16393,460.70168 358.182,451.224 C 382.60698,434.2816 395.76823,464.89286 358.272,461.016 C 349.67743,468.51956 331.50789,467.52125 315.28799,467.64001 z"
   id="path119" />
		<path
   style="fill-rule:evenodd"
   d="M 215.64,454.32001 C 197.75264,456.04877 134.21691,435.90843 184.52039,434.448 C 209.58869,439.6969 252.98409,426.6187 258.696,451.224 C 242.73568,451.06719 233.45004,456.25807 215.64,454.32001 z"
   id="path121" />
		<path
   style="fill-rule:evenodd"
   d="M 301.896,451.224 C 286.07469,448.89642 237.96561,432.29093 285.82469,434.448 C 315.71802,438.85368 347.99399,428.77181 361.656,427.824 C 387.90266,443.56921 333.06056,452.85454 311.03325,451.224 L 301.896,451.224 L 301.896,451.224 z"
   id="path123" />
		<path
   style="fill-rule:evenodd"
   d="M 219.024,431.20801 C 194.77047,422.24554 165.78613,418.01388 142.56,408.024 C 118.08372,386.61714 173.02758,412.21368 192.32297,408.02401 C 219.52612,397.57035 262.86244,430.78398 219.024,431.20801 z"
   id="path125" />
		<path
   style="fill-rule:evenodd"
   d="M 298.58401,427.82401 C 281.53486,422.56153 233.78616,420.91683 247.212,401.328 C 269.00914,409.06957 299.25806,408.35937 329.13113,408.025 C 373.56772,406.97098 333.23519,427.75051 315.288,427.825 L 306.828,427.82412 L 298.584,427.824 L 298.58401,427.82401 z"
   id="path127" />
		<path
   style="fill-rule:evenodd"
   d="M 282.09601,401.328 C 263.51483,390.05317 235.79962,387.91239 225.72,368.136 C 251.58286,375.14053 273.00725,386.58353 307.61817,384.84 C 361.76948,391.01603 312.13304,407.9624 282.09601,401.328 z"
   id="path129" />
		<path
   style="fill-rule:evenodd"
   d="M 172.44,398.01599 C 147.74167,391.80232 124.95839,383.67361 106.272,371.448 C 81.966037,338.50644 120.57887,362.75979 139.248,368.136 C 169.10095,375.93905 217.21894,365.47705 228.816,391.536 C 234.64754,399.20937 186.7444,398.13349 172.44,398.01599 z"
   id="path131" />
		<path
   style="fill-rule:evenodd"
   d="M 262.008,371.448 C 241.50362,362.12005 217.11862,356.67271 202.32,341.639 C 192.59843,336.16955 167.06403,308.77217 192.528,325.151 C 217.24595,331.32106 238.13479,341.32021 265.392,344.951 C 278.99133,349.37896 324.41286,359.81811 308.5778,371.448 C 293.05453,371.448 277.53126,371.448 262.008,371.448 z"
   id="path133" />
		<path
   style="fill-rule:evenodd"
   d="M 149.256,358.34399 C 131.50879,348.46688 108.15117,344.20016 96.264,328.463 C 62.833031,309.7144 122.29565,331.49601 139.248,331.84701 C 162.19129,330.88755 203.37203,341.44459 190.01109,358.344 C 176.42606,358.344 162.84102,358.34401 149.256,358.34399 z"
   id="path135" />
		<path
   style="fill-rule:evenodd"
   d="M 275.39999,338.25601 C 251.87732,327.5307 217.17655,327.98345 195.84,315.072 C 170.54506,311.63894 153.58341,299.87259 129.456,295.272 C 113.79851,281.07349 86.91828,278.09772 73.08,262.08 C 53.374055,256.29794 43.986881,240.19712 26.496,232.2 C 21.234293,218.83085 -3.9399339,210.90022 3.312,195.696 C 23.660603,198.5794 32.229161,213.24284 43.2,225.504 C 60.751391,234.47261 75.209252,246.53475 92.88,255.384 C 113.90622,269.70978 157.19489,261.7731 175.752,278.568 C 194.58218,288.48982 213.32613,298.49787 232.128,308.448 C 251.12795,319.30406 281.89235,318.39565 291.888,338.256 L 283.644,338.256 L 275.4,338.256 L 275.39999,338.25601 z"
   id="path137" />
		<path
   style="fill-rule:evenodd"
   d="M 136.15199,325.15201 C 114.12846,316.19155 87.630574,311.70542 73.08,295.272 C 53.298594,289.56541 44.099901,273.2761 26.496,265.392 C 13.868361,258.23292 9.4136762,231.03435 29.808,248.688 C 46.949856,258.16214 57.880727,273.84727 79.776,278.568 C 94.989278,293.13872 116.64649,301.26551 139.248,308.448 C 147.98776,317.13158 185.24492,327.39686 143.53312,325.152 L 136.152,325.152 L 136.15199,325.15201 z"
   id="path139" />
		<path
   style="fill-rule:evenodd"
   d="M 265.392,315.07199 C 246.95213,302.55187 223.847,294.697 202.32,285.264 C 189.28786,270.67214 165.96199,266.37401 152.64,252.072 C 135.98399,244.34401 123.82232,232.12168 109.368,222.192 C 97.603152,211.90085 85.437807,202.01019 76.392,189 C 62.504981,180.73502 54.565152,166.52285 43.2,155.736 C 33.497947,138.91805 19.491583,126.40442 13.32,106.056 C -14.605561,82.765709 38.158709,86.592119 39.888,106.056 C 50.330084,121.10192 59.55342,137.36658 73.08,149.328 C 80.273679,164.16632 93.612792,172.85921 102.888,185.616 C 115.85506,193.69694 122.80818,207.79182 136.152,215.496 C 147.93529,227.97671 164.11653,236.05947 175.752,248.688 C 194.31894,257.76906 208.81464,270.92136 228.816,278.568 C 235.79893,290.18207 288.02209,296.92241 265.392,315.07199 z"
   id="path141" />
		<path
   style="fill-rule:evenodd"
   d="M 252.216,281.88 C 235.03939,269.20061 211.59321,262.79079 195.84,248.688 C 179.01008,241.15792 166.97162,228.83638 152.64,218.808 C 140.3759,208.9201 128.8211,198.3229 119.376,185.616 C 105.41114,177.52486 98.038707,162.84129 86.184,152.64 C 77.359034,136.00097 62.708228,125.18777 56.376,106.056 C 48.500484,94.893372 22.989995,60.230279 39.888,56.376 C 61.292787,60.459213 67.546327,79.693673 79.776,92.952 C 85.155074,115.10093 100.38669,127.39731 109.368,145.944 C 121.49169,157.07631 129.03627,172.78773 142.56,182.52 C 151.35391,195.78209 164.90016,204.29184 175.752,215.496 C 192.26869,224.46731 202.99591,239.22809 222.336,245.376 C 228.21344,257.05912 280.22875,268.79526 255.6,278.568 L 255.6,281.88 L 252.216,281.88 L 252.216,281.88 z"
   id="path143" />
		<path
   style="fill-rule:evenodd"
   d="M 129.45599,258.69601 C 108.66293,249.63309 83.967941,244.47206 69.696,228.888 C 53.324438,223.13156 47.173976,207.15402 33.192,199.008 C 23.206242,185.73776 10.618596,175.0694 3.312,159.12 C 10.707883,147.55827 42.26893,165.32525 46.584,179.208 C 59.60939,187.18261 66.680784,201.11122 79.776,209.016 C 90.607581,222.44842 108.63291,228.68709 119.376,242.208 C 123.87087,244.96748 160.76416,261.49623 129.45599,258.69601 z"
   id="path145" />
		<path
   style="fill-rule:evenodd"
   d="M 252.216,252.07201 C 235.69502,240.87298 216.88387,231.96413 202.32,218.808 C 188.65258,210.41942 178.18271,198.83329 165.96,189 C 157.92257,176.01343 143.80901,169.10299 136.152,155.736 C 123.87152,144.83248 116.65732,128.86268 102.888,119.448 C 95.33102,97.14898 79.781746,82.842254 76.392,56.376 C 63.461207,44.190589 65.290454,18.091543 82.872,39.672 C 98.33304,48.57096 105.77989,65.484113 116.064,79.56 C 123.69711,100.67889 133.24598,119.88202 145.944,135.936 C 157.8933,147.2427 164.77315,163.61885 179.136,172.512 C 187.20599,185.46601 201.08267,192.61333 209.016,205.704 C 224.61304,214.46696 233.68835,229.75165 252.216,235.584 C 252.48338,236.20173 262.0578,254.50328 252.216,252.07201 z"
   id="path147" />
	</g>
	<path
   style="fill:#2e3192;fill-rule:evenodd;stroke:#000000;stroke-width:0.21600001"
   d="M 598.82397,450.216 C 648.44128,448.24874 599.44455,399.52195 577.197,430.11112 C 569.35064,443.18776 588.99148,450.96699 598.82397,450.216 z"
   id="path149" />
	<path
   style="fill-rule:evenodd;stroke:#000000;stroke-width:0.21600001"
   d="M 600.19202,440.13599 C 638.34788,430.63536 561.8724,430.72853 600.192,440.136 L 600.19202,440.13599 z"
   id="path151" />
</g>
</svg>